<svg width="23" height="35" viewBox="0 0 23 35" fill="none" xmlns="http://www.w3.org/2000/svg">
<path d="M5.75 4.375C5.11487 4.375 4.6 4.86469 4.6 5.46875V9.84375C4.6 10.4478 5.11487 10.9375 5.75 10.9375H17.25C17.8851 10.9375 18.4 10.4478 18.4 9.84375V5.46875C18.4 4.86469 17.8851 4.375 17.25 4.375H5.75ZM4.6 14.2188C4.6 13.6147 5.11487 13.125 5.75 13.125H17.25C17.8851 13.125 18.4 13.6147 18.4 14.2188V25.1562C18.4 25.7603 17.8851 26.25 17.25 26.25H5.75C5.11487 26.25 4.6 25.7603 4.6 25.1562V14.2188ZM10.35 28.4375C9.71487 28.4375 9.2 28.9272 9.2 29.5312C9.2 30.1353 9.71487 30.625 10.35 30.625H12.65C13.2851 30.625 13.8 30.1353 13.8 29.5312C13.8 28.9272 13.2851 28.4375 12.65 28.4375H10.35ZM4.6 0C2.05949 0 0 1.95876 0 4.375V30.625C0 33.0412 2.05949 35 4.6 35H18.4C20.9405 35 23 33.0412 23 30.625V4.375C23 1.95875 20.9405 0 18.4 0H4.6ZM2.3 4.375C2.3 3.16688 3.32975 2.1875 4.6 2.1875H18.4C19.6703 2.1875 20.7 3.16688 20.7 4.375V30.625C20.7 31.8331 19.6703 32.8125 18.4 32.8125H4.6C3.32975 32.8125 2.3 31.8331 2.3 30.625V4.375Z" fill="#0A73B7"/>
</svg>
